# xmcd
#
# Track frame offsets: 
#        150
#        20701
#        48902
#        78828
#        104329
#        105755
#        141006
#        141832
#        178958
#        199659
#        252010
#        268136
#        295362
#        319213
#
# Disc length: 4671 seconds
#
# Revision: 0
# Processed by: cddbd v1.5.2PL0 Copyright (c) Steve Scherf et al.
# Submitted via: ExactAudioCopy v1.0b3
#
DISCID=c8123d0e
DTITLE=Walter Trout - Unspoiled by Progress
DYEAR=2009
DGENRE=Blues
TTITLE0=They Call Us The Working Class
TTITLE1=Goin' Down
TTITLE2=Life In The Jungle
TTITLE3=Long Tall Sally
TTITLE4=Jimmy As Yoko
TTITLE5=Somebody's Acting Like A Child
TTITLE6=Hey Barney
TTITLE7=Sweet As A Flower
TTITLE8=Two Sides To Every Story
TTITLE9=Finally Gotten Over You
TTITLE10=Goin' Back Home
TTITLE11=Marie's Mood
TTITLE12=She's Out There Somewhere
TTITLE13=So Afraid Of The Darkness
EXTD=
EXTT0=
EXTT1=
EXTT2=
EXTT3=
EXTT4=
EXTT5=
EXTT6=
EXTT7=
EXTT8=
EXTT9=
EXTT10=
EXTT11=
EXTT12=
EXTT13=
PLAYORDER=
